<svg id="Capa_1" data-name="Capa 1" xmlns="http://www.w3.org/2000/svg" viewBox="0 0 1500 1500"><rect x="0.5" y="1000.5" width="499" height="499"/><path d="M1749,2252v498H1251V2252h498m1-1H1250v500h500V2251Z" transform="translate(-1250 -1251)"/><rect x="346.5" y="1000.5" width="653" height="499"/><path d="M2249,2252v498H1597V2252h652m1-1H1596v500h654V2251Z" transform="translate(-1250 -1251)"/><rect x="0.5" y="500.5" width="499" height="693"/><path d="M1749,1752v692H1251V1752h498m1-1H1250v694h500V1751Z" transform="translate(-1250 -1251)"/><rect x="1000.5" y="286.5" width="499" height="713"/><path d="M2749,1538v712H2251V1538h498m1-1H2250v714h500V1537Z" transform="translate(-1250 -1251)"/><rect x="1000.5" y="0.5" width="499" height="499"/><path d="M2749,1252v498H2251V1252h498m1-1H2250v500h500V1251Z" transform="translate(-1250 -1251)"/><rect x="500.5" y="0.5" width="687" height="499"/><path d="M2437,1252v498H1751V1252h686m1-1H1750v500h688V1251Z" transform="translate(-1250 -1251)"/></svg>