<?xml version="1.0" encoding="utf-8"?>
<!-- Generator: Adobe Illustrator 15.1.0, SVG Export Plug-In  -->
<!DOCTYPE svg PUBLIC "-//W3C//DTD SVG 1.1//EN" "http://www.w3.org/Graphics/SVG/1.1/DTD/svg11.dtd" [
	<!ENTITY ns_flows "http://ns.adobe.com/Flows/1.0/">
]>
<svg version="1.1"
	 xmlns="http://www.w3.org/2000/svg" xmlns:xlink="http://www.w3.org/1999/xlink" xmlns:a="http://ns.adobe.com/AdobeSVGViewerExtensions/3.0/"
	 x="0px" y="0px" width="1024px" height="271px" viewBox="-6.669 -6.314 1024 271"
	 overflow="visible" enable-background="new -6.669 -6.314 1024 271" xml:space="preserve">
<defs>
</defs>
<path id="path14499_1_" fill="#EAEAEA" d="M184.469,19.278C172.631,5.785,151.232,0,123.856,0H44.405
	c-5.601,0-10.36,4.074-11.237,9.597L0.086,219.411c-0.658,4.137,2.545,7.885,6.739,7.885h49.05l12.319-78.137l-0.382,2.447
	c0.877-5.523,5.601-9.597,11.195-9.597h23.309c45.79,0,81.644-18.599,92.118-72.401c0.311-1.591,0.58-3.14,0.813-4.653
	c-1.322-0.7-1.322-0.7,0,0C198.365,45.069,195.224,31.533,184.469,19.278"/>
<path id="path14519_1_" fill="#EAEAEA" d="M691.242,118.491h-26.399c-2.524,0-4.887,1.251-6.301,3.345l-36.42,53.633l-15.431-51.54
	c-0.969-3.225-3.939-5.438-7.306-5.438h-25.946c-3.133,0-5.339,3.083-4.328,6.046l29.065,85.329l-27.34,38.576
	c-2.143,3.027,0.022,7.214,3.734,7.214h26.37c2.497,0,4.838-1.224,6.266-3.274l87.79-126.713
	C697.097,122.635,694.932,118.491,691.242,118.491 M514.752,169.612c-2.539,15.007-14.448,25.084-29.646,25.084
	c-7.616,0-13.719-2.454-17.637-7.094c-3.883-4.596-5.347-11.151-4.116-18.442c2.362-14.88,14.469-25.274,29.434-25.274
	c7.46,0,13.514,2.475,17.51,7.156C514.321,155.758,515.905,162.349,514.752,169.612 M551.356,118.49h-26.265
	c-2.249,0-4.165,1.634-4.519,3.861l-1.153,7.341l-1.831-2.659c-5.693-8.253-18.373-11.018-31.031-11.018
	c-29.016,0-53.803,21.994-58.626,52.833c-2.51,15.389,1.054,30.091,9.78,40.352c8.013,9.428,19.448,13.352,33.075,13.352
	c23.394,0,36.363-15.02,36.363-15.02l-1.174,7.297c-0.438,2.773,1.704,5.283,4.519,5.283h23.648c3.755,0,6.944-2.723,7.531-6.428
	l14.2-89.912C556.313,121,554.164,118.49,551.356,118.49 M393.745,119.121c-2.999,19.688-18.033,19.688-32.58,19.688h-8.274
	l5.806-36.76c0.347-2.221,2.264-3.854,4.512-3.854h3.798c9.9,0,19.25,0,24.072,5.636
	C393.963,107.205,394.833,112.211,393.745,119.121 M387.415,67.751h-54.849c-3.755,0-6.944,2.73-7.531,6.436l-22.178,140.644
	c-0.438,2.772,1.704,5.283,4.512,5.283h26.194c3.748,0,6.938-2.73,7.524-6.429l5.99-37.947c0.579-3.706,3.776-6.436,7.524-6.436
	h17.354c36.13,0,56.985-17.481,62.431-52.141c2.453-15.147,0.099-27.057-6.994-35.394C419.591,72.602,405.766,67.751,387.415,67.751
	"/>
<path id="path14523_1_" fill="#EAEAEA" d="M973.524,71.616l-22.51,143.219c-0.438,2.771,1.704,5.282,4.512,5.282h22.645
	c3.748,0,6.944-2.729,7.524-6.435l22.198-140.645c0.438-2.772-1.705-5.283-4.52-5.283h-25.331
	C975.787,67.754,973.871,69.388,973.524,71.616 M905.963,169.612c-2.538,15.007-14.447,25.084-29.645,25.084
	c-7.616,0-13.72-2.454-17.637-7.094c-3.89-4.596-5.347-11.151-4.116-18.442c2.362-14.88,14.469-25.274,29.433-25.274
	c7.461,0,13.515,2.475,17.51,7.156C905.533,155.758,907.117,162.349,905.963,169.612 M942.568,118.49h-26.265
	c-2.249,0-4.166,1.634-4.52,3.861l-1.152,7.341l-1.839-2.659c-5.686-8.253-18.365-11.018-31.023-11.018
	c-29.017,0-53.803,21.994-58.626,52.833c-2.511,15.389,1.054,30.091,9.78,40.352c8.013,9.428,19.447,13.352,33.075,13.352
	c23.394,0,36.363-15.02,36.363-15.02l-1.174,7.297c-0.438,2.773,1.704,5.283,4.519,5.283h23.648c3.755,0,6.944-2.723,7.531-6.428
	l14.2-89.912C947.525,121,945.375,118.49,942.568,118.49 M784.956,119.121c-2.999,19.688-18.033,19.688-32.58,19.688h-8.274
	l5.806-36.76c0.348-2.221,2.264-3.854,4.513-3.854h3.797c9.901,0,19.25,0,24.073,5.636
	C785.174,107.205,786.044,112.211,784.956,119.121 M778.625,67.751h-54.849c-3.755,0-6.944,2.73-7.531,6.436l-22.178,140.644
	c-0.438,2.772,1.712,5.283,4.512,5.283h28.146c2.623,0,4.858-1.91,5.269-4.498l6.294-39.878c0.579-3.706,3.776-6.436,7.524-6.436
	h17.354c36.131,0,56.985-17.481,62.431-52.141c2.454-15.147,0.099-27.057-6.994-35.394
	C810.803,72.602,796.977,67.751,778.625,67.751"/>
<path id="path14527_1_" fill="#EAEAEA" d="M184.469,19.278C172.631,5.785,151.232,0,123.856,0H44.405
	c-5.601,0-10.36,4.074-11.237,9.597L0.086,219.411c-0.658,4.137,2.545,7.885,6.739,7.885h49.05l12.319-78.137l-0.382,2.447
	c0.877-5.523,5.601-9.597,11.195-9.597h23.309c45.79,0,81.644-18.599,92.118-72.401c0.311-1.591,0.58-3.14,0.813-4.653
	c-1.322-0.7-1.322-0.7,0,0C198.365,45.069,195.224,31.533,184.469,19.278"/>
<path id="path14531_1_" fill="#EAEAEA" d="M81.434,65.219c0.523-3.324,2.659-6.046,5.53-7.426c1.309-0.622,2.765-0.969,4.292-0.969
	h62.289c7.376,0,14.257,0.481,20.544,1.492c1.803,0.29,3.55,0.623,5.247,1.004c1.697,0.375,3.345,0.799,4.943,1.266
	c0.799,0.233,1.584,0.474,2.355,0.729c3.09,1.032,5.968,2.235,8.613,3.642c3.119-19.893-0.022-33.421-10.777-45.677
	C172.625,5.787,151.233,0.002,123.858,0.002H44.399c-5.594,0-10.353,4.073-11.23,9.596L0.087,219.405
	c-0.658,4.145,2.546,7.886,6.732,7.886h49.057l12.319-78.137L81.434,65.219L81.434,65.219z"/>
<path id="path14535_1_" fill="#EAEAEA" d="M195.248,64.955L195.248,64.955c-0.24,1.521-0.502,3.062-0.813,4.653
	c-10.474,53.795-46.328,72.401-92.118,72.401H79.001c-5.594,0-10.318,4.073-11.188,9.597l-11.938,75.683l-3.387,21.47
	c-0.573,3.621,2.228,6.902,5.891,6.902h41.349c4.894,0,9.059-3.564,9.823-8.395l0.403-2.107l7.793-49.39l0.502-2.729
	c0.764-4.83,4.929-8.395,9.823-8.395h6.188c40.055,0,71.418-16.271,80.583-63.335c3.826-19.667,1.846-36.087-8.274-47.622
	C203.501,70.195,199.69,67.31,195.248,64.955"/>
<path id="path14539_1_" fill="#CCCCCC" d="M184.282,60.583c-1.598-0.466-3.246-0.891-4.943-1.266s-3.451-0.707-5.248-0.997
	c-6.294-1.019-13.167-1.5-20.551-1.5H91.259c-1.535,0-2.992,0.347-4.292,0.976c-2.878,1.379-5.007,4.095-5.53,7.425l-13.239,83.936
	l-0.382,2.446c0.87-5.522,5.594-9.597,11.188-9.597h23.315c45.79,0,81.645-18.599,92.118-72.401
	c0.311-1.591,0.573-3.133,0.813-4.653c-2.652-1.4-5.523-2.609-8.614-3.635C185.866,61.064,185.081,60.817,184.282,60.583"/>
</svg>
